solid hull_placeholder
  facet normal 0 0 1
    outer loop
      vertex 0.325 0.20 0.125
      vertex -0.325 0.20 0.125
      vertex -0.325 -0.20 0.125
    endloop
  endfacet
  facet normal 0 0 1
    outer loop
      vertex 0.325 0.20 0.125
      vertex -0.325 -0.20 0.125
      vertex 0.325 -0.20 0.125
    endloop
  endfacet
  facet normal 0 0 -1
    outer loop
      vertex 0.325 0.20 -0.125
      vertex -0.325 -0.20 -0.125
      vertex -0.325 0.20 -0.125
    endloop
  endfacet
  facet normal 0 0 -1
    outer loop
      vertex 0.325 0.20 -0.125
      vertex 0.325 -0.20 -0.125
      vertex -0.325 -0.20 -0.125
    endloop
  endfacet
  facet normal 0 1 0
    outer loop
      vertex 0.325 0.20 0.125
      vertex 0.325 0.20 -0.125
      vertex -0.325 0.20 -0.125
    endloop
  endfacet
  facet normal 0 1 0
    outer loop
      vertex 0.325 0.20 0.125
      vertex -0.325 0.20 -0.125
      vertex -0.325 0.20 0.125
    endloop
  endfacet
  facet normal 0 -1 0
    outer loop
      vertex 0.325 -0.20 0.125
      vertex -0.325 -0.20 -0.125
      vertex 0.325 -0.20 -0.125
    endloop
  endfacet
  facet normal 0 -1 0
    outer loop
      vertex 0.325 -0.20 0.125
      vertex -0.325 -0.20 0.125
      vertex -0.325 -0.20 -0.125
    endloop
  endfacet
  facet normal 1 0 0
    outer loop
      vertex 0.325 0.20 0.125
      vertex 0.325 -0.20 0.125
      vertex 0.325 -0.20 -0.125
    endloop
  endfacet
  facet normal 1 0 0
    outer loop
      vertex 0.325 0.20 0.125
      vertex 0.325 -0.20 -0.125
      vertex 0.325 0.20 -0.125
    endloop
  endfacet
  facet normal -1 0 0
    outer loop
      vertex -0.325 0.20 0.125
      vertex -0.325 -0.20 -0.125
      vertex -0.325 -0.20 0.125
    endloop
  endfacet
  facet normal -1 0 0
    outer loop
      vertex -0.325 0.20 0.125
      vertex -0.325 0.20 -0.125
      vertex -0.325 -0.20 -0.125
    endloop
  endfacet
endsolid hull_placeholder
